<mxfile host="app.diagrams.net" modified="2024-06-05T09:00:16.942Z" agent="Mozilla/5.0 (Windows NT 10.0; Win64; x64) AppleWebKit/537.36 (KHTML, like Gecko) Chrome/125.0.0.0 Safari/537.36" etag="3yFG5M6-BsesH_9QRqLo" version="24.2.7" type="device">
  <diagram name="Page-1" id="oqMB7HVPfkA5Y1W3gkMV">
    <mxGraphModel dx="1884" dy="493" grid="1" gridSize="10" guides="1" tooltips="1" connect="1" arrows="1" fold="1" page="1" pageScale="1" pageWidth="850" pageHeight="1100" math="0" shadow="0">
      <root>
        <mxCell id="0" />
        <mxCell id="1" parent="0" />
        <mxCell id="fEfEpyKke3RulK7lmBRS-1" value="Start software" style="rounded=0;whiteSpace=wrap;html=1;" vertex="1" parent="1">
          <mxGeometry x="-20" y="220" width="120" height="60" as="geometry" />
        </mxCell>
        <mxCell id="fEfEpyKke3RulK7lmBRS-2" value="Intercept traffic" style="rounded=0;whiteSpace=wrap;html=1;" vertex="1" parent="1">
          <mxGeometry x="260" y="220" width="120" height="60" as="geometry" />
        </mxCell>
        <mxCell id="fEfEpyKke3RulK7lmBRS-3" value="Choose model" style="rounded=0;whiteSpace=wrap;html=1;" vertex="1" parent="1">
          <mxGeometry x="120" y="220" width="120" height="60" as="geometry" />
        </mxCell>
      </root>
    </mxGraphModel>
  </diagram>
</mxfile>
